<?xml version="1.0" encoding="UTF-8"?>
<svg xmlns:xodm="http://www.corel.com/coreldraw/odm/2003" xmlns="http://www.w3.org/2000/svg" xmlns:xlink="http://www.w3.org/1999/xlink" version="1.1" id="Layer_1" x="0px" y="0px" viewBox="0 0 2500 596" style="enable-background:new 0 0 2500 596;" xml:space="preserve">
<style type="text/css">
	.st0{fill:#222326;}
	.st1{fill:none;stroke:#222326;stroke-width:7.7964;stroke-miterlimit:29.2532;}
</style>
<g id="Layer_x0020_1">
	<g id="_1747389155360">
		<path class="st0" d="M926,393.8c-1.4-2.7-2.5-5.9-3.5-9.4c-1-3.5-1.8-7.3-2.4-11.3c-3.1,3.4-6.8,6.6-10.8,9.6    c-4.1,3-8.7,5.7-13.7,8c-4.9,2.2-10.4,3.9-16.4,5.1c-6,1.4-12.5,2-19.4,2c-11.3,0-21.8-1.6-31.3-4.9c-9.4-3.3-17.5-7.8-24.4-13.7    c-6.8-5.9-12.1-12.8-16-20.9c-3.8-8.2-5.7-17-5.7-26.6c0-23.3,8.7-41.3,26-54c17.5-12.8,43.5-19.2,78-19.2H918v-13.1    c0-10.6-3.5-19-10.4-25.2c-7-6.3-17-9.4-30.1-9.4c-11.6,0-20,2.5-25.4,7.6c-5.3,4.9-8,11.5-8,19.9h-56.9c0-9.4,2-18.3,6.1-26.8    c4.2-8.4,10.3-15.9,18.2-22.3c8.1-6.4,17.8-11.5,29.3-15.2c11.6-3.8,24.8-5.7,39.7-5.7c13.4,0,25.8,1.6,37.2,4.9    c11.6,3.3,21.6,8.1,30.1,14.5c8.5,6.4,15.1,14.5,19.9,24.3c4.8,9.7,7.2,21,7.2,33.8v95c0,11.9,0.8,21.7,2.2,29.5    c1.5,7.8,3.7,14.5,6.6,20v3.5L926,393.8L926,393.8z M871.8,353.9c5.7,0,11.1-0.7,16-2.1c4.9-1.4,9.4-3.1,13.3-5.3    c4-2.2,7.4-4.6,10.2-7.4c2.9-2.9,5.1-5.7,6.8-8.6v-38.1h-29.1c-8.9,0-16.4,0.9-22.7,2.7c-6.3,1.6-11.4,4-15.4,7.2    c-4,3-6.9,6.7-8.8,11.1c-1.9,4.2-2.9,8.9-2.9,13.9c0,7.6,2.7,14,8,19C852.7,351.4,860.8,353.9,871.8,353.9L871.8,353.9z"></path>
		<path class="st0" d="M1198.4,168.3c8.6,0,16.5,0.6,23.7,1.9c7.4,1.1,13.3,2.3,17.8,3.7l-8.4,56.7c-7.5-1.8-15.2-3.1-23.1-3.9    c-7.8-1-15.2-1.4-22.3-1.4c-16,0-28.8,3.1-38.5,9.2c-9.6,6.1-16.7,14.9-21.5,26.4v133h-56.9V172.4h53l2.7,36.2    c9-12.6,19.8-22.4,32.3-29.5C1169.8,171.9,1183.5,168.3,1198.4,168.3L1198.4,168.3z"></path>
		<polygon class="st0" points="1432.7,324.4 1452,172.4 1504.1,172.4 1464.4,393.8 1414.5,393.8 1385.4,253 1357.4,393.8     1307.5,393.8 1267.8,172.4 1319.7,172.4 1339,325 1366.8,172.4 1404.9,172.4   "></polygon>
		<path class="st0" d="M1650.3,397.9c-17.1,0-32.6-2.8-46.5-8.4c-13.9-5.6-25.9-13.2-35.8-22.7c-10-9.7-17.7-21-23.1-34    c-5.3-13.1-8-27.1-8-42v-8.2c0-16.9,2.7-32.3,8-46.3c5.3-14,12.8-26.1,22.3-36.2c9.5-10.1,20.9-18,34-23.5    c13.1-5.6,27.4-8.4,42.8-8.4c16,0,30.2,2.7,42.6,8c12.5,5.2,23.1,12.6,31.7,22.1c8.7,9.6,15.4,21.1,19.9,34.6    c4.5,13.4,6.8,28.2,6.8,44.4v24.1h-150.2c1.1,7.5,3.3,14.4,6.5,20.7c3.4,6.1,7.7,11.5,12.9,16c5.2,4.5,11.1,8,17.8,10.5    c6.7,2.4,14,3.7,21.9,3.7c5.6,0,11.1-0.5,16.6-1.6c5.6-1.1,10.9-2.7,16-4.7c5-2.2,9.7-4.8,14.1-8c4.4-3.1,8.2-6.8,11.5-11    l28.4,30.7c-3.5,5.1-8.2,10-13.9,14.9c-5.6,4.8-12.3,9.1-20.1,12.9c-7.6,3.7-16.2,6.7-25.6,9    C1671.3,396.7,1661.2,397.9,1650.3,397.9z M1643.5,214.3c-6.4,0-12.3,1.2-17.6,3.5c-5.3,2.2-10,5.4-14.1,9.6    c-4,4.2-7.3,9.3-10,15.1c-2.7,5.9-4.8,12.4-6.1,19.6h93.3v-4.5c-0.3-6-1.4-11.7-3.5-17c-2.1-5.3-5-9.9-8.8-13.7    c-3.8-4-8.5-7-14.1-9.2C1657.1,215.5,1650.7,214.3,1643.5,214.3L1643.5,214.3z"></path>
		<path class="st0" d="M1932.9,393.8c-1.4-2.7-2.5-5.9-3.5-9.4c-0.9-3.5-1.8-7.3-2.5-11.3c-3.1,3.4-6.8,6.6-10.8,9.6    c-4.1,3-8.7,5.7-13.7,8c-4.9,2.2-10.4,3.9-16.4,5.1c-6,1.4-12.5,2-19.4,2c-11.3,0-21.8-1.6-31.3-4.9c-9.4-3.3-17.5-7.8-24.4-13.7    c-6.8-5.9-12.1-12.8-16-20.9c-3.8-8.2-5.7-17-5.7-26.6c0-23.3,8.7-41.3,26-54c17.5-12.8,43.5-19.2,78-19.2h31.7v-13.1    c0-10.6-3.5-19-10.4-25.2c-7-6.3-17-9.4-30.1-9.4c-11.6,0-20.1,2.5-25.4,7.6c-5.3,4.9-8,11.5-8,19.9h-56.9c0-9.4,2-18.3,6.1-26.8    c4.2-8.4,10.3-15.9,18.2-22.3c8.1-6.4,17.8-11.5,29.3-15.2c11.6-3.8,24.8-5.7,39.7-5.7c13.4,0,25.8,1.6,37.3,4.9    c11.6,3.3,21.6,8.1,30.1,14.5c8.5,6.4,15.1,14.5,19.9,24.3c4.8,9.7,7.1,21,7.1,33.8v95c0,11.9,0.8,21.7,2.3,29.5    c1.5,7.8,3.7,14.5,6.5,20v3.5L1932.9,393.8L1932.9,393.8z M1878.7,353.9c5.7,0,11.1-0.7,16-2.1c4.9-1.4,9.3-3.1,13.3-5.3    c4-2.2,7.4-4.6,10.2-7.4c2.9-2.9,5.1-5.7,6.8-8.6v-38.1h-29.1c-8.9,0-16.4,0.9-22.7,2.7c-6.3,1.6-11.4,4-15.3,7.2    c-4,3-6.9,6.7-8.8,11.1c-1.9,4.2-2.9,8.9-2.9,13.9c0,7.6,2.6,14,8,19C1859.6,351.4,1867.8,353.9,1878.7,353.9L1878.7,353.9z"></path>
		<polygon class="st0" points="2140.4,328.1 2143.3,344.1 2146.2,328.7 2194.9,172.4 2254.2,172.4 2170.1,393.8 2116.7,393.8     2032.2,172.4 2091.5,172.4   "></polygon>
		<path class="st0" d="M2405.4,397.9c-17,0-32.6-2.8-46.5-8.4c-13.9-5.6-25.9-13.2-35.8-22.7c-10-9.7-17.7-21-23.1-34    c-5.3-13.1-8-27.1-8-42v-8.2c0-16.9,2.7-32.3,8-46.3c5.3-14,12.8-26.1,22.3-36.2c9.6-10.1,20.9-18,34-23.5    c13.1-5.6,27.4-8.4,42.8-8.4c16,0,30.2,2.7,42.6,8c12.5,5.2,23.1,12.6,31.7,22.1c8.7,9.6,15.3,21.1,19.8,34.6    c4.5,13.4,6.8,28.2,6.8,44.4v24.1h-150.2c1.1,7.5,3.3,14.4,6.5,20.7c3.4,6.1,7.7,11.5,12.9,16c5.2,4.5,11.1,8,17.8,10.5    c6.7,2.4,14,3.7,21.9,3.7c5.6,0,11.1-0.5,16.6-1.6c5.6-1.1,10.9-2.7,16-4.7c5.1-2.2,9.7-4.8,14.1-8c4.4-3.1,8.2-6.8,11.5-11    l28.4,30.7c-3.5,5.1-8.2,10-13.9,14.9c-5.6,4.8-12.3,9.1-20.1,12.9c-7.6,3.7-16.2,6.7-25.6,9    C2426.5,396.7,2416.4,397.9,2405.4,397.9L2405.4,397.9z M2398.7,214.3c-6.4,0-12.3,1.2-17.6,3.5c-5.3,2.2-10,5.4-14.1,9.6    c-3.9,4.2-7.3,9.3-10,15.1c-2.7,5.9-4.8,12.4-6.2,19.6h93.3v-4.5c-0.3-6-1.4-11.7-3.5-17c-2.1-5.3-5-9.9-8.8-13.7    c-3.8-4-8.5-7-14.1-9.2C2412.3,215.5,2405.9,214.3,2398.7,214.3L2398.7,214.3z"></path>
		<circle class="st1" cx="297.8" cy="298" r="293.9"></circle>
		<path class="st0" d="M352.7,404.2c-1.4-2.9-2.7-6.2-3.6-9.9c-1-3.7-1.9-7.6-2.6-11.8c-3.3,3.6-7.1,6.9-11.3,10.1    c-4.3,3.2-9.1,5.9-14.3,8.4c-5.1,2.3-10.9,4.1-17.1,5.3c-6.3,1.4-13.1,2.1-20.3,2.1c-11.8,0-22.8-1.7-32.8-5.1    c-9.9-3.4-18.3-8.2-25.5-14.4c-7.1-6.1-12.7-13.4-16.7-21.8c-4-8.6-6-17.8-6-27.8c0-24.4,9.1-43.2,27.2-56.5    c18.3-13.4,45.5-20.1,81.6-20.1h33.2V249c0-11.1-3.6-19.9-10.9-26.3c-7.3-6.6-17.8-9.9-31.5-9.9c-12.1,0-21,2.6-26.5,7.9    c-5.6,5.1-8.4,12.1-8.4,20.8h-59.5c0-9.8,2.1-19.2,6.4-28c4.4-8.9,10.8-16.6,19.1-23.3c8.4-6.7,18.6-12,30.6-15.8    c12.1-4,26-6,41.5-6c14,0,27,1.7,39,5.1c12.1,3.4,22.6,8.5,31.5,15.2c8.8,6.7,15.8,15.2,20.8,25.5c5,10.1,7.5,21.9,7.5,35.3v99.3    c0,12.4,0.8,22.7,2.4,30.8c1.6,8.1,3.9,15.1,6.9,21v3.6L352.7,404.2L352.7,404.2z M295.9,362.5c6,0,11.5-0.7,16.7-2.1    c5.1-1.4,9.8-3.3,13.9-5.6c4.1-2.3,7.7-4.8,10.7-7.7c3-3,5.4-6,7.1-9v-39.8h-30.4c-9.3,0-17.2,0.9-23.8,2.8    c-6.6,1.7-11.9,4.2-16.1,7.5c-4.1,3.1-7.2,7-9.2,11.6c-2,4.4-3,9.3-3,14.6c0,8,2.8,14.6,8.3,19.9    C275.9,359.8,284.5,362.5,295.9,362.5L295.9,362.5z"></path>
	</g>
</g>
</svg>
