<!-- <svg xmlns="http://www.w3.org/2000/svg" width="16" height="16" fill="#F86039" class="bi bi-award" viewBox="0 0 16 16">
  <path d="M9.669.864L8 0 6.331.864l-1.858.282-.842 1.68-1.337 1.32L2.6 6l-.306 1.854 1.337 1.32.842 1.68 1.858.282L8 12l1.669-.864 1.858-.282.842-1.68 1.337-1.32L13.4 6l.306-1.854-1.337-1.32-.842-1.68L9.669.864zm1.196 1.193l.684 1.365 1.086 1.072L12.387 6l.248 1.506-1.086 1.072-.684 1.365-1.51.229L8 10.874l-1.355-.702-1.51-.229-.684-1.365-1.086-1.072L3.614 6l-.25-1.506 1.087-1.072.684-1.365 1.51-.229L8 1.126l1.356.702 1.509.229z"/>
  <path d="M4 11.794V16l4-1 4 1v-4.206l-2.018.306L8 13.126 6.018 12.1 4 11.794z"/>
</svg> -->
<svg xmlns="http://www.w3.org/2000/svg" width="16" height="16" fill="#F86039" class="bi bi-check2-square" viewBox="0 0 16 16">
  <path d="M3 14.5A1.5 1.5 0 0 1 1.5 13V3A1.5 1.5 0 0 1 3 1.5h8a.5.5 0 0 1 0 1H3a.5.5 0 0 0-.5.5v10a.5.5 0 0 0 .5.5h10a.5.5 0 0 0 .5-.5V8a.5.5 0 0 1 1 0v5a1.5 1.5 0 0 1-1.5 1.5H3z"/>
  <path d="M8.354 10.354l7-7a.5.5 0 0 0-.708-.708L8 9.293 5.354 6.646a.5.5 0 1 0-.708.708l3 3a.5.5 0 0 0 .708 0z"/>
</svg>